<?xml version="1.0" encoding="UTF-8"?>
<!DOCTYPE svg PUBLIC "-//W3C//DTD SVG 1.1//EN" "http://www.w3.org/Graphics/SVG/1.1/DTD/svg11.dtd">
<svg xmlns="http://www.w3.org/2000/svg" xmlns:xlink="http://www.w3.org/1999/xlink" version="1.1" width="121px" height="161px" viewBox="-0.5 -0.5 121 161" class="ge-export-svg-dark"><defs><style type="text/css">svg.ge-export-svg-dark &gt; * { filter: invert(100%) hue-rotate(180deg); }&#xa;svg.ge-export-svg-dark image { filter: invert(100%) hue-rotate(180deg) }</style></defs><g><rect x="0" y="120" width="40" height="40" rx="6" ry="6" fill="#6495ed" stroke="rgb(0, 0, 0)" pointer-events="all"/><rect x="0" y="80" width="40" height="40" rx="6" ry="6" fill="#6495ed" stroke="rgb(0, 0, 0)" pointer-events="all"/><rect x="80" y="120" width="40" height="40" rx="6" ry="6" fill="#6495ed" stroke="rgb(0, 0, 0)" pointer-events="all"/><rect x="40" y="40" width="40" height="40" rx="6" ry="6" fill="#00ff00" stroke="rgb(0, 0, 0)" pointer-events="all"/><rect x="80" y="40" width="40" height="40" rx="6" ry="6" fill="#ff8500" stroke="rgb(0, 0, 0)" pointer-events="all"/><rect x="0" y="40" width="40" height="40" rx="6" ry="6" fill="#00ff00" stroke="rgb(0, 0, 0)" pointer-events="all"/><rect x="0" y="0" width="40" height="40" rx="6" ry="6" fill="#00ff00" stroke="rgb(0, 0, 0)" pointer-events="all"/><rect x="80" y="80" width="40" height="40" rx="6" ry="6" fill="#ff8500" stroke="rgb(0, 0, 0)" pointer-events="all"/><rect x="80" y="0" width="40" height="40" rx="6" ry="6" fill="#ff8500" stroke="rgb(0, 0, 0)" pointer-events="all"/><rect x="40" y="0" width="40" height="40" rx="6" ry="6" fill="#ff8500" stroke="rgb(0, 0, 0)" pointer-events="all"/><rect x="40" y="80" width="40" height="40" rx="6" ry="6" fill="#00ff00" stroke="rgb(0, 0, 0)" pointer-events="all"/><rect x="40" y="120" width="40" height="40" rx="6" ry="6" fill="#6495ed" stroke="rgb(0, 0, 0)" pointer-events="all"/></g></svg>